<svg xmlns="http://www.w3.org/2000/svg"  viewBox="0 0 100 100" width="100px" height="100px"><path fill="#cdcbbd" d="M80,40c0,2.87-0.22,5.38-0.58,7.64C77.92,57.17,74,62.3,74,72c0,4-10.5,18-24,18S26,76,26,72	c0-8.73-3.78-14.31-5.34-23.75C20.26,45.8,20,43.09,20,40c0-2.16,0.23-4.26,0.67-6.29V33.7c0.92-4.34,2.78-8.32,5.36-11.74	c0.91-1.21,1.91-2.34,2.99-3.39c1.31-1.29,2.75-2.46,4.28-3.49C38.07,11.87,43.82,10,50,10c3.38,0,6.63,0.56,9.66,1.6	c3.73,1.26,7.14,3.25,10.04,5.79c2.51,2.17,4.65,4.76,6.31,7.67c2.15,3.72,3.52,7.95,3.88,12.46C79.97,38.34,80,39.16,80,40z"/><path fill="#ebe9e4" d="M44.25,35.57c-15.46,2.07-21.35,9.05-23.54,12.99c-0.01-0.1-0.03-0.2-0.05-0.31	C20.26,45.8,20,43.09,20,40c0-1.79,0.16-3.54,0.46-5.25l0.01-0.01c0.2-0.25,3.61-4.32,12.05-6.82h0.01	C35.6,30.37,39.46,32.99,44.25,35.57z"/><path fill="#b0ab75" d="M23.5,57.5c0,0,3,2,12,2c8,0,11-2,14.5-2c6.5,0,8.5,6,24.5,6h0.575	c1.272-5.102,3.344-9.505,4.345-15.86c-15.21-3.03-26.67-7.48-35.17-12.07c-15.462,2.069-21.35,9.051-23.533,12.993	c0.578,3.359,1.433,6.228,2.287,8.937H23.5z"/><path fill="#ebe9e4" d="M35.1,16.9c0.193,0.185,0.407,0.379,0.615,0.571c16.022-0.894,22.308-5.899,22.716-6.237	C55.754,10.444,52.931,10,50,10c-6.18,0-11.93,1.87-16.7,5.08C33.81,15.63,34.41,16.24,35.1,16.9z"/><path fill="#cdcbbd" d="M72.843,75.323c-1.152,2.108-3.121,4.694-5.708,7.107c-0.002,0.002-0.004,0.006-0.006,0.008	L78.5,84.5l2-8L72.843,75.323z"/><path fill="#ebe9e4" d="M66.318,83.168L67.5,90.5l8-4l-3.89-9.194C70.303,79.189,68.504,81.257,66.318,83.168z"/><path fill="#ebe9e4" d="M73.68,73.5c-0.73,2.07-2.7,5.1-5.58,8h-0.01c-9.49,0-16.39-3.06-20.91-6.12	c-4.53-3.06-6.68-6.12-6.68-6.12c5.25-0.53,7.54-1.76,9.5-1.76c2.09,0,3.63,0.95,5.03,1.85C61.27,73.35,66.46,73.49,73.68,73.5z"/><path fill="#ebe9e4" d="M58.77,80.44c-6,7.6-14.26,8.8-14.26,8.8c-3.45-0.96-6.6-2.72-9.27-4.79	c1.92-0.52,9.29-2.75,14.66-7.41h0.01c2.44,1.34,5.38,2.56,8.82,3.38L58.77,80.44z"/><path fill="#fff" d="M75.07,63.5H74.5c-16,0-18-6-24.5-6c-3.5,0-6.5,2-14.5,2c-9,0-12-2-12-2H23	c1.17,3.69,2.33,7.09,2.79,11l0.078,0.699l0.07,0.017C28.748,69.736,31.965,70,35.5,70c5.958,0,9.373-0.883,11.632-1.467	c1.2-0.311,2.067-0.535,2.866-0.535c2.008,0,3.535,0.98,4.762,1.769c6.505,4.177,12.17,4.228,18.699,4.233	c0.074,0,0.223-0.506,0.223-0.506C73.89,72.907,74,72.399,74,72C74,68.77,74.43,66.05,75.07,63.5z"/><path fill="#ebe9e4" d="M42.32,71.36c-4.67,3.82-12.03,5.28-14.4,5.25C26.68,74.69,26,73.02,26,72	c0-1.14-0.06-2.23-0.19-3.28h0.22c2.5,0.47,5.62,0.78,9.47,0.78c1.93,0,3.57-0.1,5-0.24c0,0,0.15,0.22,0.45,0.58	C41.26,70.22,41.71,70.74,42.32,71.36z"/><path fill="#fff" d="M79.89,37.52l-0.1-0.532c-6.599-1.394-12.783-3.159-18.385-5.247L61.31,31.71	c-5.311-1.965-10.262-4.293-14.716-6.92l-0.136-0.069c-4.27-2.527-7.974-5.279-11.012-8.182c-0.614-0.587-1.183-1.161-1.693-1.706	L33.3,15.08c-1.53,1.03-2.97,2.2-4.28,3.49c-1.08,1.05-2.08,2.18-2.99,3.39c1.58,1.71,3.71,3.76,6.49,5.96h0.01	c3.07,2.45,6.93,5.07,11.72,7.65c8.5,4.59,19.96,9.04,35.17,12.07C79.78,45.38,80,42.87,80,40C80,39.16,79.97,38.34,79.89,37.52z"/><path fill="#ebe9e4" d="M73.266,21.07c-0.121-0.148-0.249-0.29-0.373-0.435c-0.362-0.426-0.734-0.843-1.119-1.247	c-0.159-0.168-0.319-0.335-0.482-0.499c-0.515-0.516-1.041-1.022-1.593-1.499c-0.488-0.425-0.988-0.828-1.5-1.22	c-0.055-0.042-0.11-0.083-0.165-0.125c-0.053,0.062-7.216,8.448-20.983,9.584c0,0,0,0,0.001,0c3.642,2.1,7.997,4.232,13.208,6.214v0	c0.294,0.112,0.579,0.225,0.878,0.335c7.878-1.635,12.796-7.952,13.63-9.094C74.296,22.391,73.795,21.719,73.266,21.07z"/><path fill="#1f212b" d="M67.5,91c-0.078,0-0.156-0.019-0.228-0.055c-0.142-0.072-0.24-0.208-0.266-0.365l-1.182-7.332	c-0.027-0.17,0.035-0.342,0.165-0.456c2.535-2.216,4.232-4.362,5.21-5.771c0.104-0.15,0.282-0.229,0.462-0.212	c0.182,0.019,0.338,0.135,0.409,0.303l3.89,9.194c0.103,0.243-0.001,0.524-0.237,0.642l-8,4C67.653,90.982,67.577,91,67.5,91z M66.855,83.361l1.03,6.387l6.971-3.486l-3.36-7.942C70.187,80.086,68.599,81.812,66.855,83.361z"/><path fill="#1f212b" d="M78.5,85c-0.03,0-0.06-0.002-0.09-0.008l-4.166-0.755c-0.166-0.03-0.305-0.142-0.371-0.297	L71.149,77.5l0.015-0.006c-0.048-0.15-0.034-0.33,0.037-0.472l-0.003-0.001c0.004-0.006,0.008-0.012,0.013-0.018	c0.007-0.012,0.014-0.023,0.021-0.034c0.717-1.099,1.033-1.632,1.172-1.886c0.101-0.185,0.299-0.289,0.515-0.254l7.657,1.177	c0.139,0.021,0.262,0.1,0.34,0.217c0.078,0.117,0.103,0.262,0.068,0.398l-2,8C78.929,84.847,78.726,85,78.5,85z M74.689,83.301	l3.439,0.623l1.753-7.014l-6.775-1.041c-0.215,0.365-0.527,0.862-0.933,1.486L74.689,83.301z"/><path fill="#1f212b" d="M39,48c-1.366,0-2.506,1.225-2.869,2.891C36.365,50.367,36.889,50,37.5,50c0.828,0,1.5,0.672,1.5,1.5	S38.328,53,37.5,53c-0.755,0-1.374-0.56-1.478-1.286C36.016,51.81,36,51.902,36,52c0,2.209,1.343,4,3,4s3-1.791,3-4	C42,49.791,40.657,48,39,48z"/><path fill="#1f212b" d="M61,48c-1.366,0-2.506,1.225-2.869,2.891C58.365,50.367,58.889,50,59.5,50c0.828,0,1.5,0.672,1.5,1.5	S60.328,53,59.5,53c-0.755,0-1.374-0.56-1.478-1.286C58.016,51.81,58,51.902,58,52c0,2.209,1.343,4,3,4s3-1.791,3-4	C64,49.791,62.657,48,61,48z"/><path fill="#1f212b" d="M33.921,44.907l-0.847-1.812C33.169,43.05,35.454,42,40,42s6.831,1.05,6.926,1.095l-0.852,1.81	C46.06,44.898,44.046,44,40,44S33.94,44.898,33.921,44.907z"/><path fill="#1f212b" d="M74.5,64c-9.888,0-14.433-2.235-18.084-4.032C54.18,58.869,52.414,58,50,58	c-1.334,0-2.586,0.302-4.172,0.685C43.398,59.271,40.375,60,35.5,60c-9.047,0-12.15-1.999-12.277-2.084l0.552-0.833	C23.805,57.102,26.822,59,35.5,59c4.756,0,7.715-0.714,10.093-1.288C47.178,57.33,48.547,57,50,57c2.646,0,4.598,0.96,6.857,2.071	C60.416,60.821,64.845,63,74.5,63V64z"/><path fill="#1f212b" d="M44.507,89.737c-0.245,0-0.458-0.179-0.494-0.428c-0.04-0.273,0.149-0.527,0.423-0.566	c0.081-0.012,8.145-1.266,13.939-8.615c0.171-0.216,0.486-0.253,0.702-0.083c0.217,0.171,0.254,0.485,0.083,0.702	c-6.05,7.674-14.235,8.936-14.581,8.985C44.555,89.736,44.53,89.737,44.507,89.737z"/><path fill="#1f212b" d="M35.24,84.95c-0.22,0-0.422-0.146-0.482-0.369c-0.072-0.267,0.085-0.542,0.352-0.613	c1.467-0.397,9.061-2.618,14.463-7.305c0.209-0.182,0.525-0.159,0.705,0.05c0.181,0.208,0.159,0.524-0.05,0.705	c-5.427,4.709-12.743,6.943-14.856,7.515C35.327,84.945,35.283,84.95,35.24,84.95z"/><path fill="#1f212b" d="M27.995,77.108c-0.027,0-0.054,0-0.08,0c-0.276-0.003-0.497-0.229-0.494-0.506	s0.221-0.521,0.506-0.494c0.02,0,0.041,0,0.061,0c2.327,0,9.499-1.447,14.019-5.131c0.214-0.174,0.529-0.141,0.704,0.072	c0.174,0.214,0.142,0.529-0.072,0.704C38.019,75.519,30.773,77.108,27.995,77.108z"/><path fill="#1f212b" d="M68.096,82c-19.04,0-27.918-12.323-28.005-12.447l0.818-0.575C40.994,69.098,49.597,81,68.096,81V82z"/><path fill="#1f212b" d="M20.856,35.061l-0.785-0.62c0.141-0.179,3.547-4.405,12.307-7.001l0.142-0.021l0.005,0.518	l0.137,0.461C24.236,30.896,20.889,35.02,20.856,35.061z"/><path fill="#1f212b" d="M21.151,48.811l-0.875-0.484c2.243-4.055,8.332-11.168,23.907-13.252l0.133,0.991	C29.175,38.092,23.304,44.92,21.151,48.811z"/><path fill="#1f212b" d="M79.322,48.13c-13.528-2.695-25.408-6.773-35.31-12.121c-4.327-2.33-8.252-4.886-11.667-7.598	l-0.135-0.1c-2.447-1.937-4.65-3.959-6.547-6.013l0.734-0.679c1.827,1.978,3.945,3.928,6.297,5.799h0.001l0.146,0.109	c3.398,2.712,7.316,5.269,11.646,7.6c9.815,5.301,21.601,9.345,35.03,12.021L79.322,48.13z"/><path fill="#1f212b" d="M58.905,42.039c-3.792,0.152-5.744,1.015-5.831,1.056l0.847,1.812C53.94,44.898,55.954,44,60,44	s6.06,0.898,6.079,0.907l0.218-0.467C63.692,43.678,61.233,42.873,58.905,42.039z"/><path fill="#1f212b" d="M47.086,26.13l-0.082-0.997c13.442-1.105,20.58-9.337,20.65-9.42l0.763,0.646	C68.345,16.445,60.959,24.989,47.086,26.13z"/><path fill="#1f212b" d="M35.737,17.97l-0.056-0.998c16.178-0.902,22.385-6.083,22.445-6.136l0.654,0.756	C58.524,11.815,52.305,17.047,35.737,17.97z"/><path fill="#1f212b" d="M50,91c-14.345,0-25-14.548-25-19c0-4.917-1.265-8.891-2.604-13.098	c-1.011-3.177-2.057-6.462-2.723-10.489C19.22,45.639,19,42.888,19,40c0-2.176,0.229-4.346,0.682-6.452	c0.003-0.019,0.006-0.038,0.01-0.056c0.938-4.421,2.801-8.504,5.541-12.135c0.926-1.231,1.966-2.411,3.091-3.505	c1.336-1.316,2.824-2.529,4.418-3.603C37.846,10.815,43.813,9,50,9c3.427,0,6.787,0.557,9.985,1.654	c3.824,1.292,7.316,3.305,10.374,5.983c2.615,2.261,4.81,4.929,6.52,7.927c2.294,3.968,3.644,8.302,4.009,12.876	C80.962,38.217,81,39.06,81,40c0,2.746-0.194,5.297-0.593,7.797c-0.636,4.042-1.689,7.277-2.708,10.407	C76.311,62.467,75,66.494,75,72C75,76.452,64.345,91,50,91z M21.658,33.86c-0.003,0.021-0.007,0.042-0.011,0.062	C21.218,35.904,21,37.949,21,40c0,2.778,0.211,5.424,0.647,8.089c0.642,3.882,1.665,7.097,2.655,10.207	C25.689,62.655,27,66.772,27,72c0,3.44,10.057,17,23,17s23-13.56,23-17c0-5.823,1.358-9.997,2.797-14.415	c0.995-3.055,2.023-6.215,2.635-10.101C78.814,45.087,79,42.64,79,40c0-0.875-0.034-1.654-0.105-2.383	c-0.343-4.292-1.604-8.343-3.751-12.056c-1.6-2.805-3.65-5.298-6.098-7.414c-2.864-2.508-6.128-4.391-9.706-5.599	C56.347,11.52,53.206,11,50,11c-5.787,0-11.369,1.698-16.142,4.91c-1.492,1.004-2.884,2.139-4.136,3.373	c-1.056,1.027-2.027,2.128-2.892,3.279C24.277,25.944,22.538,29.746,21.658,33.86z"/><path fill="#1f212b" d="M73.682,74L73.682,74c-1.11-0.001-2.167-0.007-3.192-0.028c-0.276-0.006-0.495-0.234-0.49-0.51	c0.006-0.276,0.257-0.483,0.51-0.49c1.019,0.021,2.069,0.027,3.172,0.028c0.276,0,0.5,0.224,0.5,0.5	C74.182,73.776,73.958,74,73.682,74z"/><path fill="#1f212b" d="M59.5,72.158c-0.061,0-0.123-0.011-0.183-0.035c-1.542-0.608-3.033-1.379-4.557-2.357	c-1.227-0.788-2.754-1.769-4.762-1.769c-0.798,0-1.666,0.224-2.866,0.535C44.873,69.117,41.458,70,35.5,70	c-3.537,0-6.753-0.264-9.562-0.785c-0.271-0.05-0.451-0.312-0.4-0.583c0.051-0.272,0.309-0.456,0.583-0.4	C28.869,68.742,32.024,69,35.5,69c5.831,0,9.039-0.83,11.382-1.436c1.224-0.316,2.19-0.566,3.116-0.566	c2.301,0,3.965,1.068,5.302,1.927c1.469,0.943,2.902,1.685,4.383,2.268c0.257,0.102,0.383,0.392,0.282,0.648	C59.888,72.038,59.699,72.158,59.5,72.158z"/><path fill="#1f212b" d="M65.5,73.648c-0.021,0-0.042-0.001-0.063-0.004c-1.077-0.136-2.076-0.318-3.056-0.556	c-0.268-0.065-0.433-0.335-0.368-0.604c0.065-0.268,0.337-0.433,0.604-0.368c0.942,0.229,1.906,0.404,2.944,0.536	c0.274,0.035,0.468,0.285,0.434,0.559C65.964,73.464,65.749,73.648,65.5,73.648z"/><path fill="#1f212b" d="M68.5,73.906c-0.009,0-0.017,0-0.026,0c-0.34-0.018-0.677-0.037-1.01-0.061	c-0.275-0.02-0.482-0.258-0.463-0.534c0.02-0.275,0.255-0.484,0.534-0.463c0.327,0.023,0.657,0.042,0.99,0.059	c0.276,0.014,0.488,0.249,0.474,0.525C68.986,73.698,68.765,73.906,68.5,73.906z"/><path fill="#1f212b" d="M39.5,21.144c-0.106,0-0.213-0.034-0.304-0.103c-1.622-1.242-3.116-2.514-4.441-3.78	c-0.664-0.634-1.276-1.253-1.822-1.841c-0.188-0.203-0.176-0.519,0.026-0.707c0.203-0.188,0.519-0.177,0.707,0.026	c0.532,0.573,1.13,1.178,1.779,1.799c1.299,1.241,2.765,2.489,4.358,3.708c0.219,0.168,0.261,0.482,0.093,0.701	C39.798,21.077,39.65,21.144,39.5,21.144z"/><path fill="#1f212b" d="M43.5,23.963c-0.094,0-0.188-0.026-0.273-0.082c-0.703-0.459-1.378-0.914-2.015-1.362	c-0.226-0.159-0.28-0.471-0.121-0.697c0.159-0.226,0.471-0.279,0.697-0.121c0.627,0.442,1.292,0.89,1.985,1.343	c0.231,0.151,0.296,0.46,0.145,0.692C43.823,23.883,43.663,23.963,43.5,23.963z"/><path fill="#1f212b" d="M79.891,38.02c-0.034,0-0.068-0.003-0.103-0.011c-6.693-1.404-12.968-3.188-18.653-5.301	l-0.087-0.029c-5.354-1.975-10.347-4.316-14.844-6.959l-0.137-0.069c-0.184-0.108-0.359-0.216-0.534-0.323l-0.292-0.179	c-0.236-0.143-0.312-0.451-0.168-0.687c0.142-0.236,0.45-0.312,0.687-0.168l0.297,0.182c0.133,0.082,0.267,0.164,0.404,0.247	l0.133,0.067c4.453,2.627,9.403,4.956,14.715,6.921l0.096,0.031c5.659,2.109,11.913,3.889,18.588,5.29	c0.271,0.057,0.443,0.322,0.387,0.592C80.33,37.858,80.122,38.02,79.891,38.02z"/><path fill="#1f212b" d="M67.5,29.567c-0.167,0-0.331-0.084-0.425-0.236c-0.146-0.235-0.073-0.543,0.161-0.688	c0.641-0.398,1.282-0.845,1.958-1.366c0.218-0.169,0.532-0.128,0.701,0.091c0.168,0.219,0.128,0.533-0.091,0.701	c-0.704,0.542-1.372,1.008-2.042,1.424C67.682,29.543,67.59,29.567,67.5,29.567z"/><path fill="#1f212b" d="M71.5,26.47c-0.133,0-0.266-0.053-0.364-0.157c-0.189-0.201-0.18-0.518,0.021-0.707	c0.362-0.341,0.684-0.665,0.981-0.977c0.191-0.199,0.507-0.206,0.707-0.017c0.2,0.19,0.207,0.507,0.017,0.707	c-0.309,0.323-0.644,0.66-1.019,1.014C71.746,26.425,71.623,26.47,71.5,26.47z"/><path fill="#1f212b" d="M60.262,32.352c-0.241,0-0.454-0.175-0.493-0.42c-0.044-0.272,0.141-0.529,0.414-0.573	c1.718-0.278,3.385-0.817,5.099-1.65c0.251-0.12,0.549-0.016,0.668,0.231c0.121,0.249,0.017,0.548-0.231,0.668	c-1.777,0.864-3.586,1.448-5.377,1.738C60.315,32.35,60.288,32.352,60.262,32.352z"/></svg>